<svg aria-hidden="true" style="position: absolute; width: 0; height: 0; overflow: hidden;" version="1.1" xmlns="http://www.w3.org/2000/svg" xmlns:xlink="http://www.w3.org/1999/xlink">
<defs>
<symbol id="icon-person" viewBox="0 0 24 24">
<path d="M12 12c2.21 0 4-1.79 4-4s-1.79-4-4-4c-2.21 0-4 1.79-4 4s1.79 4 4 4zM12 14c-2.67 0-8 1.34-8 4v1c0 0.55 0.45 1 1 1h14c0.55 0 1-0.45 1-1v-1c0-2.66-5.33-4-8-4z"></path>
</symbol>
<symbol id="icon-checkbox" viewBox="0 0 30 24">
<path  d="M25.337 0.765c0.518-0.496 1.208-0.771 1.924-0.765s1.401 0.29 1.912 0.794c0.511 0.504 0.807 1.188 0.826 1.907s-0.241 1.418-0.725 1.949l-14.684 18.463c-0.253 0.273-0.557 0.493-0.896 0.645s-0.705 0.234-1.076 0.241c-0.371 0.007-0.74-0.061-1.084-0.201s-0.657-0.348-0.919-0.611l-9.738-9.79c-0.271-0.254-0.489-0.56-0.64-0.901s-0.232-0.708-0.239-1.080 0.062-0.743 0.2-1.088c0.139-0.346 0.345-0.659 0.608-0.923s0.574-0.471 0.918-0.611 0.712-0.208 1.082-0.202c0.371 0.007 0.736 0.088 1.075 0.24s0.643 0.37 0.896 0.643l7.706 7.744 12.781-16.372c0.023-0.028 0.048-0.056 0.074-0.081h-0.004z"></path>
</symbol>
<symbol id="icon-menu" viewBox="0 0 24 24">
<path d="M3.6 6.001c0-0.318 0.126-0.623 0.351-0.849s0.53-0.351 0.849-0.351h14.4c0.318 0 0.624 0.126 0.849 0.351s0.351 0.53 0.351 0.849-0.126 0.623-0.351 0.849c-0.225 0.225-0.53 0.351-0.849 0.351h-14.4c-0.318 0-0.623-0.126-0.849-0.351s-0.351-0.53-0.351-0.849z"></path>
<path d="M3.6 12.001c0-0.318 0.126-0.624 0.351-0.849s0.53-0.351 0.849-0.351h14.4c0.318 0 0.624 0.126 0.849 0.351s0.351 0.53 0.351 0.849c0 0.318-0.126 0.624-0.351 0.849s-0.53 0.351-0.849 0.351h-14.4c-0.318 0-0.623-0.126-0.849-0.351s-0.351-0.53-0.351-0.849z"></path>
<path d="M3.6 18.001c0-0.318 0.126-0.624 0.351-0.849s0.53-0.351 0.849-0.351h14.4c0.318 0 0.624 0.126 0.849 0.351s0.351 0.53 0.351 0.849c0 0.318-0.126 0.624-0.351 0.849s-0.53 0.351-0.849 0.351h-14.4c-0.318 0-0.623-0.126-0.849-0.351s-0.351-0.53-0.351-0.849z"></path>
</symbol>
<symbol id="icon-twitter" viewBox="0 0 24 24">
<path   d="M24 4.558c-0.893 0.391-1.843 0.651-2.835 0.777 1.020-0.609 1.799-1.566 2.165-2.72-0.951 0.567-2.001 0.967-3.12 1.191-0.903-0.962-2.19-1.557-3.594-1.557-2.724 0-4.917 2.211-4.917 4.921 0 0.39 0.033 0.765 0.114 1.122-4.090-0.2-7.71-2.16-10.142-5.146-0.424 0.737-0.674 1.579-0.674 2.487 0 1.704 0.877 3.214 2.186 4.089-0.791-0.015-1.566-0.245-2.223-0.606 0 0.015 0 0.034 0 0.054 0 2.391 1.705 4.377 3.942 4.835-0.401 0.11-0.837 0.162-1.29 0.162-0.315 0-0.633-0.018-0.931-0.084 0.637 1.948 2.447 3.381 4.597 3.427-1.674 1.309-3.8 2.099-6.101 2.099-0.403 0-0.79-0.018-1.177-0.068 2.18 1.405 4.762 2.208 7.548 2.208 9.054 0 14.004-7.5 14.004-14.001 0-0.217-0.008-0.428-0.018-0.636 0.976-0.693 1.797-1.558 2.466-2.554z"></path>
</symbol>
<symbol id="icon-send" viewBox="0 0 24 24">
<path  d="M24 2l-24 11.25 7.67 2.367 11.83-9.242-8.998 10.116 0.007 0.002-0.009-0.002v5.509l4.301-4.182 5.449 1.682 3.75-17.5z"></path>
</symbol>
<symbol id="icon-phone" viewBox="0 0 24 24">
<path d="M17.726 13.865l-1.838-0.21c-0.441-0.051-0.876 0.101-1.187 0.412l-1.332 1.332c-2.048-1.042-3.727-2.714-4.769-4.769l1.339-1.339c0.311-0.311 0.463-0.745 0.413-1.187l-0.21-1.824c-0.087-0.731-0.702-1.281-1.44-1.281h-1.252c-0.818 0-1.498 0.68-1.447 1.498 0.384 6.18 5.326 11.116 11.499 11.499 0.818 0.051 1.498-0.63 1.498-1.447v-1.252c0.007-0.731-0.543-1.346-1.274-1.433z"></path>
</symbol>
<symbol id="icon-linkedin" viewBox="0 0 24 24">
<path  d="M23.994 24v-0.001h0.006v-8.802c0-4.306-0.927-7.623-5.961-7.623-2.42 0-4.044 1.328-4.707 2.587h-0.070v-2.185h-4.773v16.023h4.97v-7.934c0-2.089 0.396-4.109 2.983-4.109 2.549 0 2.587 2.384 2.587 4.243v7.801h4.965z"></path>
<path  d="M0.396 7.977h4.976v16.023h-4.976v-16.023z"></path>
<path  d="M2.882-0c-1.591 0-2.882 1.291-2.882 2.882s1.291 2.909 2.882 2.909c1.591 0 2.882-1.318 2.882-2.909-0.001-1.591-1.292-2.882-2.882-2.882v0z"></path>
</symbol>
<symbol id="icon-instagram" viewBox="0 0 24 24">
<path  d="M23.976 7.056c-0.056-1.275-0.263-2.152-0.558-2.912-0.305-0.806-0.774-1.528-1.388-2.128-0.6-0.609-1.327-1.083-2.124-1.383-0.764-0.295-1.636-0.502-2.912-0.558-1.285-0.061-1.693-0.075-4.951-0.075s-3.666 0.014-4.946 0.070c-1.275 0.056-2.152 0.263-2.911 0.558-0.807 0.305-1.528 0.774-2.129 1.388-0.609 0.6-1.083 1.327-1.383 2.124-0.295 0.764-0.502 1.636-0.558 2.911-0.061 1.285-0.075 1.693-0.075 4.951s0.014 3.666 0.070 4.946c0.056 1.275 0.263 2.152 0.558 2.912 0.305 0.806 0.778 1.528 1.388 2.129 0.6 0.609 1.327 1.083 2.124 1.383 0.764 0.295 1.636 0.502 2.912 0.558 1.28 0.056 1.688 0.070 4.946 0.070s3.666-0.014 4.946-0.070c1.275-0.056 2.152-0.263 2.911-0.558 1.613-0.624 2.888-1.899 3.512-3.511 0.295-0.764 0.502-1.636 0.558-2.912 0.056-1.28 0.070-1.688 0.070-4.946s-0.005-3.666-0.061-4.946zM21.815 16.855c-0.052 1.172-0.249 1.805-0.413 2.227-0.403 1.046-1.233 1.875-2.279 2.279-0.422 0.164-1.059 0.361-2.227 0.412-1.266 0.056-1.646 0.070-4.848 0.070s-3.587-0.014-4.848-0.070c-1.172-0.051-1.805-0.248-2.227-0.412-0.52-0.192-0.994-0.497-1.378-0.896-0.399-0.389-0.703-0.858-0.896-1.378-0.164-0.422-0.361-1.060-0.412-2.227-0.056-1.266-0.070-1.646-0.070-4.848s0.014-3.587 0.070-4.848c0.051-1.172 0.248-1.805 0.412-2.227 0.192-0.52 0.497-0.994 0.9-1.378 0.389-0.399 0.858-0.703 1.378-0.895 0.422-0.164 1.060-0.361 2.227-0.413 1.266-0.056 1.646-0.070 4.848-0.070 3.207 0 3.587 0.014 4.848 0.070 1.172 0.052 1.805 0.249 2.227 0.413 0.52 0.192 0.994 0.497 1.378 0.895 0.398 0.389 0.703 0.858 0.895 1.378 0.164 0.422 0.361 1.059 0.413 2.227 0.056 1.266 0.070 1.646 0.070 4.848s-0.014 3.577-0.070 4.843z"></path>
<path  d="M12.045 5.837c-3.404 0-6.165 2.761-6.165 6.165s2.762 6.165 6.165 6.165c3.404 0 6.165-2.761 6.165-6.165s-2.761-6.165-6.165-6.165zM12.045 16.001c-2.208 0-3.999-1.791-3.999-3.999s1.791-3.999 3.999-3.999c2.208 0 3.999 1.791 3.999 3.999s-1.791 3.999-3.999 3.999z"></path>
<path  d="M19.893 5.593c0 0.795-0.644 1.439-1.439 1.439s-1.439-0.644-1.439-1.439c0-0.795 0.645-1.439 1.439-1.439s1.439 0.644 1.439 1.439z"></path>
</symbol>
<symbol id="icon-facebook" viewBox="0 0 24 24">
<path  d="M15.997 3.985h2.191v-3.816c-0.378-0.052-1.678-0.169-3.192-0.169-3.159 0-5.323 1.987-5.323 5.639v3.361h-3.486v4.266h3.486v10.734h4.274v-10.733h3.345l0.531-4.266h-3.877v-2.939c0.001-1.233 0.333-2.077 2.051-2.077z"></path>
</symbol>
<symbol id="icon-email" viewBox="0 0 24 24">
<path d="M18 6h-12c-0.825 0-1.492 0.675-1.492 1.5l-0.008 9c0 0.825 0.675 1.5 1.5 1.5h12c0.825 0 1.5-0.675 1.5-1.5v-9c0-0.825-0.675-1.5-1.5-1.5zM17.7 9.188l-5.303 3.315c-0.24 0.15-0.555 0.15-0.795 0l-5.303-3.315c-0.188-0.12-0.3-0.322-0.3-0.54 0-0.502 0.548-0.803 0.975-0.54l5.025 3.143 5.025-3.143c0.428-0.262 0.975 0.038 0.975 0.54 0 0.217-0.112 0.42-0.3 0.54z"></path>
</symbol>
<symbol id="icon-diagram" viewBox="0 0 24 24">
<path fill="#4d5ae5" style="fill: var(--color3, #4d5ae5)" d="M11.194 11.223h0.8v3.598h-0.8v-3.598z"></path>
<path fill="#4d5ae5" style="fill: var(--color3, #4d5ae5)" d="M14.392 12.823h0.8v1.999h-0.8v-1.999z"></path>
<path fill="#4d5ae5" style="fill: var(--color3, #4d5ae5)" d="M7.996 14.022h0.8v0.8h-0.8v-0.8z"></path>
<path fill="#4d5ae5" style="fill: var(--color3, #4d5ae5)" d="M5.597 13.622h0.8v1.199h-0.8v-1.199z"></path>
<path fill="#2e2f42" style="fill: var(--color4, #2e2f42)" d="M1.199 21.218h19.19c0.662 0 1.199-0.537 1.199-1.199v-1.599c0-0.662-0.537-1.199-1.199-1.199h-0.4v-9.97l2.271-2.151c0.527 0.26 1.165 0.102 1.51-0.374s0.297-1.131-0.114-1.551-1.065-0.483-1.549-0.148c-0.483 0.335-0.655 0.969-0.407 1.502l-1.711 1.622v-0.922c0-0.662-0.537-1.199-1.199-1.199h-15.992c-0.662 0-1.199 0.537-1.199 1.199v11.994h-0.4c-0.662 0-1.199 0.537-1.199 1.199v1.599c0 0.662 0.537 1.199 1.199 1.199zM22.788 3.627c0.221 0 0.4 0.179 0.4 0.4s-0.179 0.4-0.4 0.4c-0.221 0-0.4-0.179-0.4-0.4s0.179-0.4 0.4-0.4zM2.399 5.227c0-0.221 0.179-0.4 0.4-0.4h15.992c0.221 0 0.4 0.179 0.4 0.4v1.679l-0.8 0.76v-1.639c0-0.221-0.179-0.4-0.4-0.4h-14.392c-0.221 0-0.4 0.179-0.4 0.4v9.995c0 0.221 0.179 0.4 0.4 0.4h14.392c0.221 0 0.4-0.179 0.4-0.4v-7.256l0.8-0.758v9.213h-16.791v-11.994zM5.997 10.424c-0.541-0.002-1.016 0.359-1.16 0.88s0.079 1.074 0.544 1.35c0.465 0.276 1.057 0.207 1.446-0.169l1.39 0.697c0.161 0.081 0.357 0.043 0.477-0.092l2.954-3.323 2.904 2.176c0.156 0.117 0.373 0.104 0.515-0.029l2.524-2.391v6.098h-13.593v-9.195h13.593v1.995l-2.829 2.679-2.928-2.195c-0.166-0.125-0.4-0.101-0.539 0.054l-2.995 3.37-1.12-0.56c0.008-0.048 0.013-0.096 0.015-0.145 0-0.662-0.537-1.199-1.199-1.199zM6.397 11.623c0 0.221-0.179 0.4-0.4 0.4s-0.4-0.179-0.4-0.4c0-0.221 0.179-0.4 0.4-0.4s0.4 0.179 0.4 0.4zM8.795 18.020h3.998v0.4c0 0.221-0.179 0.4-0.4 0.4h-3.198c-0.221 0-0.4-0.179-0.4-0.4v-0.4zM0.8 18.42c0-0.221 0.179-0.4 0.4-0.4h6.796v0.4c0 0.662 0.537 1.199 1.199 1.199h3.198c0.662 0 1.199-0.537 1.199-1.199v-0.4h6.796c0.221 0 0.4 0.179 0.4 0.4v1.599c0 0.221-0.179 0.4-0.4 0.4h-19.19c-0.221 0-0.4-0.179-0.4-0.4v-1.599z"></path>
</symbol>
<symbol id="icon-close" viewBox="0 0 24 24">
<path d="M24 2.417l-2.417-2.417-9.583 9.583-9.583-9.583-2.417 2.417 9.583 9.583-9.583 9.583 2.417 2.417 9.583-9.583 9.583 9.583 2.417-2.417-9.583-9.583 9.583-9.583z"></path>
</symbol>
<symbol id="icon-clock" viewBox="0 0 24 24">
<path fill="#2e2f42" style="fill: var(--color4, #2e2f42)" d="M23.472 11.476c-0.001-6.339-5.141-11.477-11.481-11.476s-11.477 5.142-11.476 11.481c0.001 4.993 3.23 9.413 7.987 10.932 0.045 0.014 0.093 0.022 0.14 0.021 0.090-0 0.179-0.024 0.257-0.070 0.101-0.060 0.177-0.155 0.212-0.267l2.899-9.188c0.792-0.004 1.432-0.65 1.427-1.442s-0.65-1.432-1.442-1.427c-0.213 0.001-0.424 0.050-0.615 0.144l-3.829-3.83c-0.19-0.183-0.493-0.178-0.676 0.012-0.179 0.186-0.179 0.479 0 0.665l3.827 3.832c-0.294 0.599-0.126 1.323 0.402 1.732l-2.762 8.755c-5.458-2.011-8.253-8.065-6.243-13.524s8.065-8.253 13.524-6.243c5.458 2.011 8.253 8.066 6.243 13.524-0.982 2.667-3.001 4.823-5.597 5.98l-0.298-1.406c-0.055-0.258-0.309-0.424-0.567-0.369-0.081 0.017-0.157 0.056-0.219 0.111l-2.878 2.569c-0.197 0.176-0.215 0.478-0.039 0.675 0.057 0.064 0.13 0.112 0.212 0.138l3.674 1.173c0.251 0.081 0.521-0.057 0.601-0.309 0.026-0.079 0.030-0.164 0.013-0.246l-0.293-1.379c4.248-1.791 7.006-5.957 6.997-10.567zM11.994 10.998c0.264 0 0.478 0.214 0.478 0.478s-0.214 0.478-0.478 0.478c-0.264 0-0.478-0.214-0.478-0.478s0.214-0.478 0.478-0.478zM13.569 22.146l1.638-1.461 0.452 2.13-2.090-0.669z"></path>
<path fill="#4d5ae5" style="fill: var(--color3, #4d5ae5)" d="M11.516 2.389v0.957c0 0.264 0.214 0.478 0.478 0.478s0.478-0.214 0.478-0.478v-0.957c0-0.264-0.214-0.478-0.478-0.478s-0.478 0.214-0.478 0.478z"></path>
<path fill="#4d5ae5" style="fill: var(--color3, #4d5ae5)" d="M2.907 10.998c-0.264 0-0.478 0.214-0.478 0.478s0.214 0.478 0.478 0.478h0.957c0.264 0 0.478-0.214 0.478-0.478s-0.214-0.478-0.478-0.478h-0.957z"></path>
<path fill="#4d5ae5" style="fill: var(--color3, #4d5ae5)" d="M21.081 11.954c0.264 0 0.478-0.214 0.478-0.478s-0.214-0.478-0.478-0.478h-0.957c-0.264 0-0.478 0.214-0.478 0.478s0.214 0.478 0.478 0.478h0.957z"></path>
</symbol>
<symbol id="icon-astronaut" viewBox="0 0 24 24">
<path fill="#4d5ae5" style="fill: var(--color3, #4d5ae5)" d="M23.981 3.393c-0.047-0.144-0.172-0.25-0.323-0.272l-1.433-0.208-0.641-1.298c-0.134-0.274-0.583-0.274-0.717 0l-0.641 1.298-1.433 0.208c-0.151 0.022-0.276 0.127-0.323 0.272s-0.008 0.304 0.101 0.41l1.037 1.011-0.245 1.427c-0.026 0.15 0.036 0.302 0.159 0.391 0.124 0.090 0.287 0.102 0.422 0.030l1.282-0.674 1.282 0.674c0.058 0.031 0.123 0.046 0.186 0.046 0.083 0 0.166-0.026 0.235-0.076 0.123-0.090 0.185-0.241 0.159-0.391l-0.245-1.427 1.037-1.011c0.109-0.106 0.148-0.265 0.101-0.41zM22.133 4.388c-0.094 0.092-0.137 0.224-0.115 0.354l0.143 0.836-0.75-0.394c-0.058-0.031-0.122-0.046-0.186-0.046s-0.128 0.015-0.186 0.046l-0.75 0.394 0.143-0.836c0.022-0.13-0.021-0.262-0.115-0.354l-0.608-0.592 0.839-0.122c0.13-0.019 0.243-0.101 0.301-0.219l0.375-0.76 0.375 0.76c0.058 0.118 0.171 0.2 0.301 0.219l0.839 0.122-0.607 0.592z"></path>
<path fill="#4d5ae5" style="fill: var(--color3, #4d5ae5)" d="M19.6 15.392h-0.8v0.8h0.8v-0.8z"></path>
<path fill="#4d5ae5" style="fill: var(--color3, #4d5ae5)" d="M19.6 16.992h-0.8v0.8h0.8v-0.8z"></path>
<path fill="#4d5ae5" style="fill: var(--color3, #4d5ae5)" d="M20.4 16.192h-0.8v0.8h0.8v-0.8z"></path>
<path fill="#4d5ae5" style="fill: var(--color3, #4d5ae5)" d="M18.8 16.192h-0.8v0.8h0.8v-0.8z"></path>
<path fill="#4d5ae5" style="fill: var(--color3, #4d5ae5)" d="M16.8 19.792h-0.8v0.8h0.8v-0.8z"></path>
<path fill="#4d5ae5" style="fill: var(--color3, #4d5ae5)" d="M16.8 21.392h-0.8v0.8h0.8v-0.8z"></path>
<path fill="#4d5ae5" style="fill: var(--color3, #4d5ae5)" d="M17.6 20.592h-0.8v0.8h0.8v-0.8z"></path>
<path fill="#4d5ae5" style="fill: var(--color3, #4d5ae5)" d="M16 20.592h-0.8v0.8h0.8v-0.8z"></path>
<path fill="#4d5ae5" style="fill: var(--color3, #4d5ae5)" d="M12 18.192h-0.8v0.8h0.8v-0.8z"></path>
<path fill="#4d5ae5" style="fill: var(--color3, #4d5ae5)" d="M12 19.792h-0.8v0.8h0.8v-0.8z"></path>
<path fill="#4d5ae5" style="fill: var(--color3, #4d5ae5)" d="M12.8 18.992h-0.8v0.8h0.8v-0.8z"></path>
<path fill="#4d5ae5" style="fill: var(--color3, #4d5ae5)" d="M11.2 18.992h-0.8v0.8h0.8v-0.8z"></path>
<path fill="#4d5ae5" style="fill: var(--color3, #4d5ae5)" d="M4.4 4.591h-0.8v0.8h0.8v-0.8z"></path>
<path fill="#4d5ae5" style="fill: var(--color3, #4d5ae5)" d="M4.4 6.192h-0.8v0.8h0.8v-0.8z"></path>
<path fill="#4d5ae5" style="fill: var(--color3, #4d5ae5)" d="M5.2 5.392h-0.8v0.8h0.8v-0.8z"></path>
<path fill="#4d5ae5" style="fill: var(--color3, #4d5ae5)" d="M3.6 5.392h-0.8v0.8h0.8v-0.8z"></path>
<path fill="#2e2f42" style="fill: var(--color4, #2e2f42)" d="M18.536 10.62c-0.216-0.291-0.532-0.478-0.891-0.528-0.361-0.051-0.717 0.044-1.005 0.264l-0.939 0.72-1.423 1.063-1.018-0.406c1.816-0.815 3.085-2.631 3.085-4.74 0-2.867-2.342-5.2-5.221-5.2s-5.221 2.333-5.221 5.2c0 1.039 0.311 2.006 0.84 2.819l-2.073-0.018c-0.001 0-0.002 0-0.004 0-0.006 0-0.012 0.003-0.018 0.004-0.040 0.002-0.078 0.010-0.116 0.023-0.010 0.004-0.020 0.006-0.029 0.010-0.005 0.002-0.010 0.002-0.014 0.005l-2.425 1.197c-0 0-0.001 0-0.001 0l-1.42 0.683c-0.016 0.007-0.032 0.016-0.047 0.026-0.566 0.377-0.759 1.117-0.449 1.722 0.165 0.322 0.446 0.558 0.792 0.667 0.133 0.042 0.269 0.062 0.404 0.062 0.217 0 0.432-0.053 0.63-0.158l1.041-0.554 1.698-0.877 1.018-0.006-4.081 4.062c-0 0-0.001 0-0.001 0.001l-1.004 1c-0.237 0.236-0.368 0.549-0.368 0.883s0.13 0.648 0.368 0.884c0.244 0.242 0.564 0.364 0.884 0.364s0.641-0.122 0.885-0.364l0.986-0.982 1.306-0.975 0.676 0.673-1.321 1.316c-0 0-0.001 0-0.001 0.001l-1.004 1c-0.237 0.236-0.368 0.549-0.368 0.883s0.13 0.648 0.368 0.884c0.244 0.242 0.564 0.364 0.885 0.364s0.641-0.122 0.885-0.364l2.611-2.6c0-0 0-0.001 0.001-0.001l0.757-0.75-0.003-0.003c0.005-0.005 0.012-0.006 0.016-0.012l3.874-4.244 2.603 0.37c0.019 0.003 0.038 0.004 0.056 0.004 0.048 0 0.095-0.012 0.14-0.029 0.013-0.005 0.025-0.011 0.037-0.018 0.014-0.007 0.030-0.011 0.043-0.020l2.41-1.6c0.009-0.006 0.014-0.016 0.022-0.022 0.010-0.008 0.022-0.011 0.030-0.019l0.954-0.893c0.496-0.465 0.565-1.227 0.159-1.771zM1.598 13.328c-0.13 0.070-0.278 0.084-0.419 0.039-0.14-0.044-0.254-0.139-0.32-0.268-0.121-0.235-0.051-0.522 0.161-0.676l0.985-0.474 0.337 0.984-0.744 0.396zM4.221 11.957l-1.161 0.6-0.329-0.962 1.52-0.75-0.030 1.113zM15.545 6.991c0 0.689-0.164 1.338-0.449 1.92l-3.136-1.424c-0.033-0.43-0.256-0.806-0.591-1.041l1.098-3.645c1.783 0.567 3.078 2.231 3.078 4.191zM6.704 6.991c0-2.426 1.983-4.4 4.421-4.4 0.19 0 0.375 0.016 0.559 0.039l-1.074 3.565c-0.014-0-0.028-0.004-0.043-0.004-0.774 0-1.404 0.628-1.404 1.4s0.63 1.4 1.404 1.4c0.521 0 0.971-0.288 1.214-0.708l2.897 1.316c-0.806 1.085-2.096 1.792-3.552 1.792-2.438 0-4.421-1.974-4.421-4.4zM11.171 7.592c0 0.331-0.271 0.6-0.604 0.6s-0.604-0.269-0.604-0.6c0-0.331 0.271-0.6 0.604-0.6s0.604 0.269 0.604 0.6zM1.849 18.86c-0.177 0.176-0.464 0.175-0.641 0-0.085-0.085-0.132-0.198-0.132-0.317s0.047-0.232 0.132-0.316l0.722-0.719 0.638 0.636-0.719 0.716zM4.259 21.66c-0.177 0.176-0.464 0.176-0.641 0-0.085-0.085-0.132-0.198-0.132-0.317s0.047-0.232 0.132-0.316l0.722-0.719 0.639 0.636-0.72 0.716zM6.87 19.058c-0 0-0.001 0-0.001 0.001l-1.324 1.32-0.639-0.636 1.322-1.316c0 0 0 0 0-0s0.001-0 0.001-0.001c0.030-0.030 0.049-0.066 0.067-0.102 0.005-0.010 0.015-0.019 0.020-0.030 0.012-0.031 0.014-0.064 0.019-0.096 0.002-0.018 0.010-0.036 0.010-0.054 0-0.027-0.010-0.053-0.015-0.079-0.005-0.024-0.005-0.048-0.014-0.072-0.015-0.038-0.041-0.071-0.068-0.103-0.008-0.009-0.010-0.020-0.019-0.028 0 0 0 0-0 0s-0-0.001-0.001-0.002l-1.205-1.2c-0.013-0.013-0.029-0.018-0.044-0.029-0.021-0.016-0.042-0.032-0.065-0.043s-0.046-0.018-0.070-0.024c-0.026-0.007-0.050-0.013-0.077-0.015-0.024-0.002-0.047 0.001-0.072 0.004-0.027 0.003-0.052 0.007-0.078 0.015s-0.048 0.020-0.071 0.034c-0.015 0.008-0.032 0.011-0.046 0.022l-1.33 0.993-0.676-0.673 1.799-1.79 3.27 3.216-0.696 0.689zM11.984 13.796c-0.012-0.002-0.022 0.003-0.034 0.002-0.029-0.002-0.057 0-0.086 0.005-0.023 0.004-0.044 0.008-0.066 0.016-0.026 0.009-0.049 0.021-0.072 0.035-0.022 0.014-0.043 0.028-0.062 0.046-0.010 0.008-0.021 0.012-0.030 0.022l-3.524 3.859-3.246-3.192 2.125-2.114c0.156-0.156 0.157-0.409 0.001-0.566-0.079-0.079-0.182-0.118-0.286-0.117v-0l-1.664 0.010 0.021-1.206 2.328 0.020c0.949 0.97 2.272 1.576 3.736 1.576 0.328 0 0.648-0.034 0.96-0.092 0.030 0.024 0.060 0.048 0.097 0.064l1.807 0.72 0.114 0.569 0.134 0.664-2.252-0.32zM15.015 13.929l-0.235-1.168 1.085-0.81 0.71 0.942-1.56 1.036zM17.83 11.806l-0.628 0.589-0.698-0.927 0.624-0.478c0.116-0.090 0.263-0.126 0.407-0.107 0.145 0.020 0.273 0.096 0.36 0.213 0.162 0.219 0.135 0.524-0.064 0.71z"></path>
<path fill="#2e2f42" style="fill: var(--color4, #2e2f42)" d="M10.202 13.908l-1.607-1.6c-0.156-0.156-0.408-0.156-0.564 0l-1.607 1.6c-0.075 0.076-0.118 0.177-0.118 0.284s0.042 0.208 0.118 0.284l1.607 1.6c0.078 0.078 0.18 0.116 0.282 0.116s0.204-0.039 0.282-0.116l1.607-1.6c0.075-0.075 0.118-0.177 0.118-0.284s-0.042-0.208-0.118-0.284zM8.312 15.227l-1.040-1.036 1.040-1.036 1.040 1.036-1.040 1.036z"></path>
<path fill="#2e2f42" style="fill: var(--color4, #2e2f42)" d="M12.873 3.803l-0.193 0.777c0.053 0.013 1.303 0.339 1.303 1.612h0.8c-0-1.513-1.249-2.224-1.91-2.388z"></path>
<path fill="#2e2f42" style="fill: var(--color4, #2e2f42)" d="M14.783 6.991h-0.8v0.8h0.8v-0.8z"></path>
</symbol>
<symbol id="icon-antenna" viewBox="0 0 24 24">
<path fill="#2e2f42" style="fill: var(--color4, #2e2f42)" d="M23.080 16.573l-6.332-6.379 0.703-3.462c0.181 0.071 0.374 0.108 0.569 0.109h0.005c0.894 0.011 1.628-0.706 1.638-1.6s-0.706-1.628-1.6-1.638c-0.894-0.011-1.628 0.706-1.638 1.6-0.002 0.191 0.029 0.382 0.094 0.562l-3.72 0.454-6.068-6.1c-0.074-0.076-0.176-0.119-0.282-0.12-0.105 0.001-0.206 0.042-0.28 0.116l-1.134 1.128c-0.156 0.156-0.156 0.409 0 0.566l0.61 0.619c-2.365 4.348-1.597 9.733 1.89 13.247 0.032 0.031 0.069 0.055 0.11 0.073-0.025 0.135-0.038 0.273-0.039 0.41v4.64h-4.8c-1.104 0.001-1.999 0.896-2 2v0.8c0 0.221 0.179 0.4 0.4 0.4h18.4c0.221 0 0.4-0.179 0.4-0.4v-0.8c-0.001-1.104-0.896-1.999-2-2h-4.8v-2.056c0.752 0.158 1.518 0.238 2.286 0.24 1.844-0.002 3.658-0.462 5.28-1.338l0.614 0.617c0.074 0.076 0.176 0.119 0.282 0.12 0.105-0.001 0.206-0.042 0.28-0.116l1.134-1.128c0.156-0.156 0.156-0.409 0-0.566zM17.46 4.675c0.313-0.312 0.82-0.31 1.131 0.003s0.31 0.82-0.003 1.131c-0.15 0.149-0.353 0.233-0.564 0.233h-0.002c-0.442-0.002-0.798-0.362-0.796-0.804 0.001-0.212 0.086-0.414 0.236-0.563h-0.002zM16.518 7.303l-0.449 2.209-0.882-0.887 1.33-1.322zM16.064 6.627l-1.44 1.432-1.114-1.12 2.554-0.312zM18.003 21.6c0.663 0 1.2 0.537 1.2 1.2v0.4h-17.6v-0.4c0-0.663 0.537-1.2 1.2-1.2h15.2zM12.403 20v0.8h-4v-0.8h4zM8.403 19.2v-3.040c0-0.97 0.897-1.76 2-1.76s2 0.79 2 1.76v3.040h-4zM13.203 17.928v-1.768c0-1.412-1.256-2.56-2.8-2.56-0.998-0.015-1.932 0.493-2.461 1.34-3.043-3.205-3.729-7.984-1.709-11.915l13.951 14.031c-2.154 1.096-4.624 1.404-6.982 0.872zM21.67 17.415l-15.793-15.886 0.566-0.564 5.951 5.985c0.003 0 0.004 0.005 0.007 0.007l9.836 9.894-0.568 0.564z"></path>
<path fill="#4d5ae5" style="fill: var(--color3, #4d5ae5)" d="M10.407 15.2h-0.004c-0.663-0.001-1.201 0.535-1.202 1.198s0.535 1.201 1.198 1.202h0.004c0.663 0.001 1.201-0.535 1.202-1.198s-0.535-1.201-1.198-1.202zM10.687 16.684c-0.075 0.075-0.177 0.117-0.284 0.116-0.221-0.001-0.399-0.181-0.398-0.402 0.001-0.106 0.043-0.207 0.118-0.282s0.175-0.116 0.28-0.116c0.221 0.001 0.399 0.181 0.398 0.402-0.001 0.106-0.043 0.207-0.118 0.282h0.004z"></path>
</symbol>
</defs>
</svg>
